<?xml version="1.0" encoding="UTF-8" standalone="no"?>
<svg width="80px" height="90px" viewBox="0 0 80 90" version="1.1" xmlns="http://www.w3.org/2000/svg" xmlns:xlink="http://www.w3.org/1999/xlink" xmlns:sketch="http://www.bohemiancoding.com/sketch/ns">
    <title>logotest@2x</title>
    <description>Created with Sketch (http://www.bohemiancoding.com/sketch)</description>
    <defs></defs>
    <g id="Page-1" stroke="none" stroke-width="1" fill="none" fill-rule="evenodd" sketch:type="MSPage">
        <g id="Group" sketch:type="MSLayerGroup" transform="translate(2.000000, 4.000000)" fill="#FFFFFF">
            <path d="M3.57292417,50 L10.3538827,78.1307364 C11.0021234,80.8199564 13.7709746,83 16.5271289,83 L59.9255631,83 C62.6867121,83 65.4242465,80.8092213 66.0345539,78.1307364 L72.4442955,50 L3.57292417,50 Z M21.598,61.1716667 L17.154,61.1716667 L17.154,58.3886667 L29.474,58.3886667 L29.474,61.1716667 L25.03,61.1716667 L25.03,72.6666667 L21.598,72.6666667 L21.598,61.1716667 Z M36.95675,61.1716667 L32.51275,61.1716667 L32.51275,58.3886667 L44.83275,58.3886667 L44.83275,61.1716667 L40.38875,61.1716667 L40.38875,72.6666667 L36.95675,72.6666667 L36.95675,61.1716667 Z M52.3155,61.1716667 L47.8715,61.1716667 L47.8715,58.3886667 L60.1915,58.3886667 L60.1915,61.1716667 L55.7475,61.1716667 L55.7475,72.6666667 L52.3155,72.6666667 L52.3155,61.1716667 Z" id="Path-1" sketch:type="MSShapeGroup"></path>
            <path d="M44.7636583,39 L72.0074604,39 C73.6524219,39 75,40.3438914 75,42.0016655 L75,43.9983345 C75,45.6609799 73.6601944,47 72.0074604,47 L3.99253964,47 C2.34757814,47 1,45.6561086 1,43.9983345 L1,42.0016655 C1,40.3390201 2.33980564,39 3.99253964,39 L32.2681111,39 C32.517904,40.6349702 33.436969,42.1593761 34.9286632,43.1280936 C37.7077729,44.9328686 41.4222479,44.1453208 43.2319991,41.3585482 L44.7636583,39 Z" id="Rectangle-6" sketch:type="MSShapeGroup"></path>
            <path d="M44.5422362,37.5048816 C44.8380025,38.2799321 45,39.1210478 45,40 C45,43.8659934 41.8659934,47 38,47 C34.1340066,47 31,43.8659934 31,40 C31,37.1481155 32.70546,34.6945628 35.1521314,33.6035904 L33.4590519,36.2107042 C31.954771,38.5270937 32.6174508,41.6271748 34.9286632,43.1280936 C37.244588,44.6320728 40.33917,43.977036 41.8457576,41.6570945 L44.5422362,37.5048816 Z" id="Oval-5" sketch:type="MSShapeGroup"></path>
            <rect id="Rectangle-7" sketch:type="MSShapeGroup" transform="translate(49.000000, 22.000000) rotate(33.000000) translate(-49.000000, -22.000000) " x="46" y="-1" width="6" height="46" rx="6"></rect>
        </g>
    </g>
</svg>