<?xml version="1.0" encoding="UTF-8" standalone="no"?>
<svg width="720px" height="246px" viewBox="0 0 720 246" version="1.1" xmlns="http://www.w3.org/2000/svg" xmlns:xlink="http://www.w3.org/1999/xlink" xmlns:sketch="http://www.bohemiancoding.com/sketch/ns">
    <title>cover</title>
    <description>Created with Sketch (http://www.bohemiancoding.com/sketch)</description>
    <defs>
        <path d="M0.824,86.848 L13.496,86.848 L13.496,157.12 L13.88,157.12 C15.9280102,154.047985 18.3599859,151.424011 21.176,149.248 C23.9920141,147.071989 26.9359846,145.280007 30.008,143.872 C33.0800154,142.463993 36.2479837,141.440003 39.512,140.8 C42.7760163,140.159997 45.8799853,139.84 48.824,139.84 C55.8640352,139.84 62.2959709,141.023988 68.12,143.392 C73.9440291,145.760012 78.9679789,149.055979 83.192,153.28 C87.4160211,157.504021 90.7119882,162.495971 93.08,168.256 C95.4480118,174.016029 96.632,180.287966 96.632,187.072 C96.632,193.856034 95.4480118,200.127971 93.08,205.888 C90.7119882,211.648029 87.4160211,216.639979 83.192,220.864 C78.9679789,225.088021 73.9440291,228.383988 68.12,230.752 C62.2959709,233.120012 55.8640352,234.304 48.824,234.304 C45.8799853,234.304 42.7760163,233.984003 39.512,233.344 C36.2479837,232.703997 33.0800154,231.680007 30.008,230.272 C26.9359846,228.863993 23.9920141,227.072011 21.176,224.896 C18.3599859,222.719989 15.9280102,220.096015 13.88,217.024 L13.496,217.024 L13.496,232 L0.824,232 L0.824,86.848 Z M82.808,187.072 C82.808,182.079975 82.008008,177.408022 80.408,173.056 C78.807992,168.703978 76.5360147,164.928016 73.592,161.728 C70.6479853,158.527984 67.0960208,156.000009 62.936,154.144 C58.7759792,152.287991 54.0720262,151.36 48.824,151.36 C43.5759738,151.36 38.7760218,152.287991 34.424,154.144 C30.0719782,156.000009 26.296016,158.527984 23.096,161.728 C19.895984,164.928016 17.400009,168.703978 15.608,173.056 C13.815991,177.408022 12.92,182.079975 12.92,187.072 C12.92,192.064025 13.815991,196.735978 15.608,201.088 C17.400009,205.440022 19.895984,209.215984 23.096,212.416 C26.296016,215.616016 30.0719782,218.143991 34.424,220 C38.7760218,221.856009 43.5759738,222.784 48.824,222.784 C54.0720262,222.784 58.7759792,221.856009 62.936,220 C67.0960208,218.143991 70.6479853,215.616016 73.592,212.416 C76.5360147,209.215984 78.807992,205.440022 80.408,201.088 C82.008008,196.735978 82.808,192.064025 82.808,187.072 Z M175.736,176.896 L175.736,174.592 C175.736,159.103923 168.056077,151.36 152.696,151.36 C142.199948,151.36 133.048039,154.879965 125.24,161.92 L117.56,152.896 C126.008042,144.191956 138.679916,139.84 155.576,139.84 C159.928022,139.84 164.11998,140.479994 168.152,141.76 C172.18402,143.040006 175.671985,144.991987 178.616,147.616 C181.560015,150.240013 183.927991,153.53598 185.72,157.504 C187.512009,161.47202 188.408,166.207972 188.408,171.712 L188.408,211.84 C188.408,215.296017 188.567998,218.911981 188.888,222.688 C189.208002,226.464019 189.559998,229.567988 189.944,232 L177.656,232 C177.271998,229.823989 176.984001,227.456013 176.792,224.896 C176.599999,222.335987 176.504,219.840012 176.504,217.408 L176.12,217.408 C172.407981,223.42403 168.024025,227.743987 162.968,230.368 C157.911975,232.992013 151.736036,234.304 144.44,234.304 C140.47198,234.304 136.632019,233.760005 132.92,232.672 C129.207981,231.583995 125.912014,229.920011 123.032,227.68 C120.151986,225.439989 117.848009,222.688016 116.12,219.424 C114.391991,216.159984 113.528,212.352022 113.528,208 C113.528,200.703964 115.415981,194.976021 119.192,190.816 C122.968019,186.655979 127.703972,183.55201 133.4,181.504 C139.096028,179.45599 145.175968,178.176003 151.64,177.664 C158.104032,177.151997 164.023973,176.896 169.4,176.896 L175.736,176.896 Z M169.208,187.264 C166.007984,187.264 162.008024,187.423998 157.208,187.744 C152.407976,188.064002 147.800022,188.831994 143.384,190.048 C138.967978,191.264006 135.192016,193.151987 132.056,195.712 C128.919984,198.272013 127.352,201.791978 127.352,206.272 C127.352,209.216015 127.959994,211.743989 129.176,213.856 C130.392006,215.968011 132.02399,217.695993 134.072,219.04 C136.12001,220.384007 138.391988,221.343997 140.888,221.92 C143.384012,222.496003 145.911987,222.784 148.472,222.784 C153.080023,222.784 157.079983,222.016008 160.472,220.48 C163.864017,218.943992 166.711988,216.864013 169.016,214.24 C171.320012,211.615987 173.015995,208.544018 174.104,205.024 C175.192005,201.503982 175.736,197.76002 175.736,193.792 L175.736,187.264 L169.208,187.264 Z M265.4,163.456 C263.47999,159.743981 260.920016,156.800011 257.72,154.624 C254.519984,152.447989 250.616023,151.36 246.008,151.36 C243.831989,151.36 241.624011,151.615997 239.384,152.128 C237.143989,152.640003 235.128009,153.439995 233.336,154.528 C231.543991,155.616005 230.104005,156.991992 229.016,158.656 C227.927995,160.320008 227.384,162.367988 227.384,164.8 C227.384,169.024021 228.855985,172.09599 231.8,174.016 C234.744015,175.93601 239.159971,177.599993 245.048,179.008 L257.912,182.08 C264.184031,183.488007 269.399979,186.335979 273.56,190.624 C277.720021,194.912021 279.8,200.255968 279.8,206.656 C279.8,211.520024 278.80801,215.711982 276.824,219.232 C274.83999,222.752018 272.216016,225.631989 268.952,227.872 C265.687984,230.112011 261.944021,231.743995 257.72,232.768 C253.495979,233.792005 249.208022,234.304 244.856,234.304 C237.943965,234.304 231.51203,232.992013 225.56,230.368 C219.60797,227.743987 214.520021,223.232032 210.296,216.832 L221.24,209.344 C223.800013,213.44002 227.03198,216.703988 230.936,219.136 C234.84002,221.568012 239.479973,222.784 244.856,222.784 C247.416013,222.784 249.975987,222.496003 252.536,221.92 C255.096013,221.343997 257.36799,220.448006 259.352,219.232 C261.33601,218.015994 262.935994,216.44801 264.152,214.528 C265.368006,212.60799 265.976,210.368013 265.976,207.808 C265.976,203.327978 264.312017,200.09601 260.984,198.112 C257.655983,196.12799 253.624024,194.560006 248.888,193.408 L236.6,190.528 C235.063992,190.143998 232.984013,189.504004 230.36,188.608 C227.735987,187.711996 225.176012,186.368009 222.68,184.576 C220.183988,182.783991 218.040009,180.448014 216.248,177.568 C214.455991,174.687986 213.56,171.136021 213.56,166.912 C213.56,162.303977 214.487991,158.272017 216.344,154.816 C218.200009,151.359983 220.695984,148.544011 223.832,146.368 C226.968016,144.191989 230.51998,142.560005 234.488,141.472 C238.45602,140.383995 242.551979,139.84 246.776,139.84 C253.048031,139.84 258.871973,141.055988 264.248,143.488 C269.624027,145.920012 273.783985,150.079971 276.728,155.968 L265.4,163.456 Z M312.248,182.656 L354.68,142.144 L373.688,142.144 L328.952,183.232 L378.488,232 L358.904,232 L312.248,184.768 L312.248,232 L299.576,232 L299.576,86.848 L312.248,86.848 L312.248,182.656 Z M400.952,190.528 C401.336002,195.008022 402.423991,199.23198 404.216,203.2 C406.008009,207.16802 408.375985,210.591986 411.32,213.472 C414.264015,216.352014 417.655981,218.623992 421.496,220.288 C425.336019,221.952008 429.495978,222.784 433.976,222.784 C440.760034,222.784 446.615975,221.216016 451.544,218.08 C456.472025,214.943984 460.215987,211.32802 462.776,207.232 L472.568,215.296 C467.191973,222.080034 461.272032,226.943985 454.808,229.888 C448.343968,232.832015 441.400037,234.304 433.976,234.304 C427.319967,234.304 421.144028,233.120012 415.448,230.752 C409.751972,228.383988 404.85602,225.088021 400.76,220.864 C396.66398,216.639979 393.432012,211.648029 391.064,205.888 C388.695988,200.127971 387.512,193.856034 387.512,187.072 C387.512,180.287966 388.663988,174.016029 390.968,168.256 C393.272012,162.495971 396.47198,157.504021 400.568,153.28 C404.66402,149.055979 409.463972,145.760012 414.968,143.392 C420.472028,141.023988 426.423968,139.84 432.824,139.84 C439.608034,139.84 445.687973,141.055988 451.064,143.488 C456.440027,145.920012 460.951982,149.15198 464.6,153.184 C468.248018,157.21602 471.03199,161.951973 472.952,167.392 C474.87201,172.832027 475.832,178.623969 475.832,184.768 L475.832,190.528 L400.952,190.528 Z M462.008,180.16 C462.008,171.583957 459.448026,164.640027 454.328,159.328 C449.207974,154.015973 442.040046,151.36 432.824,151.36 C428.72798,151.36 424.760019,152.159992 420.92,153.76 C417.079981,155.360008 413.720014,157.503987 410.84,160.192 C407.959986,162.880013 405.656009,165.951983 403.928,169.408 C402.199991,172.864017 401.336,176.447981 401.336,180.16 L462.008,180.16 Z" id="path-1"></path>
        <mask id="mask-2" sketch:name="baske" fill="white">
            <use xlink:href="#path-1"></use>
        </mask>
    </defs>
    <g id="Page-1" stroke="none" stroke-width="1" fill="none" fill-rule="evenodd" sketch:type="MSPage">
        <g id="Group" sketch:type="MSLayerGroup" transform="translate(494.000000, -5.000000)" fill="#FFFFFF">
            <path d="M10.7187725,150 L31.0680616,234.418816 C33.0092417,242.471781 41.3002255,249 49.5813866,249 L179.776689,249 C188.060136,249 196.268364,242.446868 198.109728,234.365584 L217.332886,150 L10.7187725,150 Z M64.794,183.515 L51.462,183.515 L51.462,175.166 L88.422,175.166 L88.422,183.515 L75.09,183.515 L75.09,218 L64.794,218 L64.794,183.515 Z M110.87025,183.515 L97.53825,183.515 L97.53825,175.166 L134.49825,175.166 L134.49825,183.515 L121.16625,183.515 L121.16625,218 L110.87025,218 L110.87025,183.515 Z M156.9465,183.515 L143.6145,183.515 L143.6145,175.166 L180.5745,175.166 L180.5745,183.515 L167.2425,183.515 L167.2425,218 L156.9465,218 L156.9465,183.515 Z" id="Path-1" sketch:type="MSShapeGroup"></path>
            <path d="M134.290975,117 L216.005068,117 C220.969235,117 225,121.031674 225,126.004996 L225,131.995004 C225,136.969411 220.972832,141 216.005068,141 L11.9949317,141 C7.03076489,141 3,136.968326 3,131.995004 L3,126.004996 C3,121.030589 7.02716811,117 11.9949317,117 L96.7944018,117 C97.5427483,121.900256 100.300522,126.471384 104.785989,129.384281 C113.123319,134.798606 124.266744,132.435962 129.686104,124.090879 L134.290975,117 Z" id="Rectangle-6" sketch:type="MSShapeGroup"></path>
            <path d="M133.626709,112.514645 C134.514008,114.839796 135,117.363143 135,120 C135,131.59798 125.59798,141 114,141 C102.40202,141 93,131.59798 93,120 C93,111.444347 98.11638,104.083688 105.456394,100.810771 L100.377156,108.632113 C95.8643129,115.581281 97.8366874,124.871351 104.785989,129.384281 C111.733764,133.896218 121.024025,131.921076 125.537273,124.971284 L133.626709,112.514645 Z" id="Oval-5" sketch:type="MSShapeGroup"></path>
            <rect id="Rectangle-7" sketch:type="MSShapeGroup" transform="translate(147.000000, 66.000000) rotate(33.000000) translate(-147.000000, -66.000000) " x="138" y="-3" width="18" height="138" rx="18"></rect>
        </g>
        <use id="baske" fill="#FFFFFF" sketch:type="MSShapeGroup" xlink:href="#path-1"></use>
    </g>
</svg>
